HIERARCHY
ROOT Hips
{
	OFFSET 1.324476 86.935013 4.250773
	CHANNELS 6 Xposition Yposition Zposition Zrotation Yrotation Xrotation 
	JOINT Spine
	{
		OFFSET 0.000000 8.814246 -2.080107
		CHANNELS 3 Zrotation Yrotation Xrotation
		JOINT Spine1
		{
			OFFSET 0.000000 8.844141 -0.000000
			CHANNELS 3 Zrotation Yrotation Xrotation
			JOINT Spine2
			{
				OFFSET 0.000000 11.682268 0.000000
				CHANNELS 3 Zrotation Yrotation Xrotation
				JOINT Spine3
				{
					OFFSET 0.000000 11.746700 0.000000
					CHANNELS 3 Zrotation Yrotation Xrotation
					JOINT Neck
					{
						OFFSET -0.000000 17.658264 -0.000000
						CHANNELS 3 Zrotation Yrotation Xrotation
						JOINT Neck1
						{
							OFFSET 0.000000 5.101515 -0.000000
							CHANNELS 3 Zrotation Yrotation Xrotation
							JOINT Head
							{
								OFFSET 0.000000 5.101515 0.000000
								CHANNELS 3 Zrotation Yrotation Xrotation
								JOINT HeadEnd
								{
									OFFSET -0.000000 11.655085 0.000000
									CHANNELS 3 Zrotation Yrotation Xrotation
									End Site
									{
										OFFSET 0.000000 0.000000 0.000000
									}
								}
							}
						}
					}
					JOINT RightShoulder
					{
						OFFSET -2.625389 11.175210 -0.000000
						CHANNELS 3 Zrotation Yrotation Xrotation
						JOINT RightArm
						{
							OFFSET -0.000000 10.434715 -0.000000
							CHANNELS 3 Zrotation Yrotation Xrotation
							JOINT RightForeArm
							{
								OFFSET -0.000000 29.628420 -0.000000
								CHANNELS 3 Zrotation Yrotation Xrotation
								JOINT RightHand
								{
									OFFSET -0.000000 22.857611 -0.000000
									CHANNELS 3 Zrotation Yrotation Xrotation
									JOINT RightHandThumb1
									{
										OFFSET -2.867323 3.959563 2.944291
										CHANNELS 3 Zrotation Yrotation Xrotation
										JOINT RightHandThumb2
										{
											OFFSET -0.000000 3.350399 0.000000
											CHANNELS 3 Zrotation Yrotation Xrotation
											JOINT RightHandThumb3
											{
												OFFSET 0.000000 3.756509 -0.000000
												CHANNELS 3 Zrotation Yrotation Xrotation
												JOINT RightHandThumb4
												{
													OFFSET 0.000000 3.147345 -0.000000
													CHANNELS 3 Zrotation Yrotation Xrotation
													End Site
													{
														OFFSET 0.000000 0.000000 0.000000
													}
												}
											}
										}
									}
									JOINT RightHandIndex1
									{
										OFFSET -0.086752 10.030893 2.345280
										CHANNELS 3 Zrotation Yrotation Xrotation
										JOINT RightHandIndex2
										{
											OFFSET -0.000000 4.061090 -0.000000
											CHANNELS 3 Zrotation Yrotation Xrotation
											JOINT RightHandIndex3
											{
												OFFSET 0.000000 3.248873 0.000000
												CHANNELS 3 Zrotation Yrotation Xrotation
												JOINT RightHandIndex4
												{
													OFFSET 0.000000 2.639709 -0.000000
													CHANNELS 3 Zrotation Yrotation Xrotation
													End Site
													{
														OFFSET 0.000000 0.000000 0.000000
													}
												}
											}
										}
									}
									JOINT RightHandMiddle1
									{
										OFFSET 0.104102 9.502952 0.006768
										CHANNELS 3 Zrotation Yrotation Xrotation
										JOINT RightHandMiddle2
										{
											OFFSET 0.000000 4.568727 0.000000
											CHANNELS 3 Zrotation Yrotation Xrotation
											JOINT RightHandMiddle3
											{
												OFFSET 0.000000 3.654981 -0.000000
												CHANNELS 3 Zrotation Yrotation Xrotation
												JOINT RightHandMiddle4
												{
													OFFSET -0.000000 2.741236 -0.000000
													CHANNELS 3 Zrotation Yrotation Xrotation
													End Site
													{
														OFFSET 0.000000 0.000000 0.000000
													}
												}
											}
										}
									}
									JOINT RightHandRing1
									{
										OFFSET 0.086752 8.921708 -2.267442
										CHANNELS 3 Zrotation Yrotation Xrotation
										JOINT RightHandRing2
										{
											OFFSET -0.000000 4.061090 0.000000
											CHANNELS 3 Zrotation Yrotation Xrotation
											JOINT RightHandRing3
											{
												OFFSET -0.000000 3.654981 -0.000000
												CHANNELS 3 Zrotation Yrotation Xrotation
												JOINT RightHandRing4
												{
													OFFSET -0.000000 2.741236 -0.000000
													CHANNELS 3 Zrotation Yrotation Xrotation
													End Site
													{
														OFFSET 0.000000 0.000000 0.000000
													}
												}
											}
										}
									}
									JOINT RightHandPinky1
									{
										OFFSET -0.173504 7.976997 -4.467199
										CHANNELS 3 Zrotation Yrotation Xrotation
										JOINT RightHandPinky2
										{
											OFFSET -0.000000 3.350399 -0.000000
											CHANNELS 3 Zrotation Yrotation Xrotation
											JOINT RightHandPinky3
											{
												OFFSET -0.000000 2.842763 -0.000000
												CHANNELS 3 Zrotation Yrotation Xrotation
												JOINT RightHandPinky4
												{
													OFFSET 0.000000 2.639709 0.000000
													CHANNELS 3 Zrotation Yrotation Xrotation
													End Site
													{
														OFFSET 0.000000 0.000000 0.000000
													}
												}
											}
										}
									}
									JOINT RightForeArmEnd
									{
										OFFSET 0.000000 0.000000 0.000000
										CHANNELS 3 Zrotation Yrotation Xrotation
										End Site
										{
											OFFSET 0.000000 0.000000 0.000000
										}
									}
								}
								JOINT RightArmEnd
								{
									OFFSET 0.000000 0.000000 0.000000
									CHANNELS 3 Zrotation Yrotation Xrotation
									End Site
									{
										OFFSET 0.000000 0.000000 0.000000
									}
								}
							}
						}
					}
					JOINT LeftShoulder
					{
						OFFSET 2.625389 11.175210 -0.000000
						CHANNELS 3 Zrotation Yrotation Xrotation
						JOINT LeftArm
						{
							OFFSET 0.000000 10.813635 0.000000
							CHANNELS 3 Zrotation Yrotation Xrotation
							JOINT LeftForeArm
							{
								OFFSET 0.000000 28.724781 -0.000000
								CHANNELS 3 Zrotation Yrotation Xrotation
								JOINT LeftHand
								{
									OFFSET 0.644384 25.716167 -0.328871
									CHANNELS 3 Zrotation Yrotation Xrotation
									JOINT LeftHandThumb1
									{
										OFFSET 2.867323 3.959563 2.944291
										CHANNELS 3 Zrotation Yrotation Xrotation
										JOINT LeftHandThumb2
										{
											OFFSET -0.000000 3.350399 -0.000000
											CHANNELS 3 Zrotation Yrotation Xrotation
											JOINT LeftHandThumb3
											{
												OFFSET -0.000000 3.756509 0.000000
												CHANNELS 3 Zrotation Yrotation Xrotation
												JOINT LeftHandThumb4
												{
													OFFSET 0.000000 3.100000 -0.000000
													CHANNELS 3 Zrotation Yrotation Xrotation
													End Site
													{
														OFFSET 0.000000 0.000000 0.000000
													}
												}
											}
										}
									}
									JOINT LeftHandIndex1
									{
										OFFSET 0.086752 10.030893 2.345280
										CHANNELS 3 Zrotation Yrotation Xrotation
										JOINT LeftHandIndex2
										{
											OFFSET 0.000000 4.061090 -0.000000
											CHANNELS 3 Zrotation Yrotation Xrotation
											JOINT LeftHandIndex3
											{
												OFFSET 0.000000 3.248873 -0.000000
												CHANNELS 3 Zrotation Yrotation Xrotation
												JOINT LeftHandIndex4
												{
													OFFSET -0.000000 2.639709 0.000000
													CHANNELS 3 Zrotation Yrotation Xrotation
													End Site
													{
														OFFSET 0.000000 0.000000 0.000000
													}
												}
											}
										}
									}
									JOINT LeftHandMiddle1
									{
										OFFSET -0.104102 9.502952 0.006768
										CHANNELS 3 Zrotation Yrotation Xrotation
										JOINT LeftHandMiddle2
										{
											OFFSET 0.000000 4.568727 -0.000000
											CHANNELS 3 Zrotation Yrotation Xrotation
											JOINT LeftHandMiddle3
											{
												OFFSET 0.000000 3.654981 -0.000000
												CHANNELS 3 Zrotation Yrotation Xrotation
												JOINT LeftHandMiddle4
												{
													OFFSET -0.000000 2.741236 0.000000
													CHANNELS 3 Zrotation Yrotation Xrotation
													End Site
													{
														OFFSET 0.000000 0.000000 0.000000
													}
												}
											}
										}
									}
									JOINT LeftHandRing1
									{
										OFFSET -0.086752 8.921708 -2.267442
										CHANNELS 3 Zrotation Yrotation Xrotation
										JOINT LeftHandRing2
										{
											OFFSET 0.000000 4.061090 -0.000000
											CHANNELS 3 Zrotation Yrotation Xrotation
											JOINT LeftHandRing3
											{
												OFFSET 0.000000 3.654981 -0.000000
												CHANNELS 3 Zrotation Yrotation Xrotation
												JOINT LeftHandRing4
												{
													OFFSET 0.000000 2.741236 0.000000
													CHANNELS 3 Zrotation Yrotation Xrotation
													End Site
													{
														OFFSET 0.000000 0.000000 0.000000
													}
												}
											}
										}
									}
									JOINT LeftHandPinky1
									{
										OFFSET 0.173504 7.976997 -4.467199
										CHANNELS 3 Zrotation Yrotation Xrotation
										JOINT LeftHandPinky2
										{
											OFFSET 0.000000 3.350399 -0.000000
											CHANNELS 3 Zrotation Yrotation Xrotation
											JOINT LeftHandPinky3
											{
												OFFSET -0.000000 2.842763 0.000000
												CHANNELS 3 Zrotation Yrotation Xrotation
												JOINT LeftHandPinky4
												{
													OFFSET 0.000000 2.639709 -0.000000
													CHANNELS 3 Zrotation Yrotation Xrotation
													End Site
													{
														OFFSET 0.000000 0.000000 0.000000
													}
												}
											}
										}
									}
									JOINT LeftForeArmEnd
									{
										OFFSET 0.000000 0.000000 0.000000
										CHANNELS 3 Zrotation Yrotation Xrotation
										End Site
										{
											OFFSET 0.000000 0.000000 0.000000
										}
									}
								}
								JOINT LeftArmEnd
								{
									OFFSET 0.000000 0.000000 0.000000
									CHANNELS 3 Zrotation Yrotation Xrotation
									End Site
									{
										OFFSET 0.000000 0.000000 0.000000
									}
								}
							}
						}
					}
				}
			}
		}
	}
	JOINT RightUpLeg
	{
		OFFSET -11.289943 -0.000000 0.000000
		CHANNELS 3 Zrotation Yrotation Xrotation
		JOINT RightLeg
		{
			OFFSET -0.000000 -38.200325 -0.000000
			CHANNELS 3 Zrotation Yrotation Xrotation
			JOINT RightFoot
			{
				OFFSET -0.000000 -39.900856 0.000000
				CHANNELS 3 Zrotation Yrotation Xrotation
				JOINT RightToeBase
				{
					OFFSET 0.000000 0.000000 15.261641
					CHANNELS 3 Zrotation Yrotation Xrotation
					JOINT RightToeBaseEnd
					{
						OFFSET 0.000000 -0.000000 7.370709
						CHANNELS 3 Zrotation Yrotation Xrotation
						End Site
						{
							OFFSET 0.000000 0.000000 0.000000
						}
					}
				}
				JOINT RightLegEnd
				{
					OFFSET 0.000000 0.000000 0.000000
					CHANNELS 3 Zrotation Yrotation Xrotation
					End Site
					{
						OFFSET 0.000000 0.000000 0.000000
					}
				}
			}
			JOINT RightUpLegEnd
			{
				OFFSET 0.000000 0.000000 0.000000
				CHANNELS 3 Zrotation Yrotation Xrotation
				End Site
				{
					OFFSET 0.000000 0.000000 0.000000
				}
			}
		}
	}
	JOINT LeftUpLeg
	{
		OFFSET 11.315661 0.000000 -0.000000
		CHANNELS 3 Zrotation Yrotation Xrotation
		JOINT LeftLeg
		{
			OFFSET -0.000000 -38.200325 0.000000
			CHANNELS 3 Zrotation Yrotation Xrotation
			JOINT LeftFoot
			{
				OFFSET -0.000000 -39.900856 0.000000
				CHANNELS 3 Zrotation Yrotation Xrotation
				JOINT LeftToeBase
				{
					OFFSET -0.000000 0.000000 15.261641
					CHANNELS 3 Zrotation Yrotation Xrotation
					JOINT LeftToeBaseEnd
					{
						OFFSET -0.000000 0.000000 7.539996
						CHANNELS 3 Zrotation Yrotation Xrotation
						End Site
						{
							OFFSET 0.000000 0.000000 0.000000
						}
					}
				}
				JOINT LeftLegEnd
				{
					OFFSET 0.000000 0.000000 0.000000
					CHANNELS 3 Zrotation Yrotation Xrotation
					End Site
					{
						OFFSET 0.000000 0.000000 0.000000
					}
				}
			}
			JOINT LeftUpLegEnd
			{
				OFFSET 0.000000 0.000000 0.000000
				CHANNELS 3 Zrotation Yrotation Xrotation
				End Site
				{
					OFFSET 0.000000 0.000000 0.000000
				}
			}
		}
	}
}
MOTION
Frames: 5
Frame Time: 0.016667
0.457618 85.571411 6.447106 -1.059449 -4.650849 -14.404026 -0.520533 0.257386 9.136461 5.835356 -1.537572 -3.071497 -3.940439 0.761743 18.171492 0.892438 -0.767199 -1.431097 7.228554 1.727228 12.041301 -3.126581 1.138273 -6.816011 -0.229277 3.516252 -25.577459 0.000000 0.000000 0.000000 98.652657 -1.040652 4.278721 57.418892 -44.348217 6.702312 1.426241 16.708090 32.477539 5.294015 17.490753 -10.733233 9.516456 -1.748224 40.263226 -0.000008 0.000049 -23.218143 0.000007 0.000072 -16.067549 0.000014 0.000002 -0.000049 10.462591 0.216092 -8.923431 7.480165 -0.060779 0.085509 7.439651 -0.029331 0.018622 -0.000009 0.000026 -0.000038 11.236920 0.067764 -11.117787 7.972220 -0.036857 0.030058 7.937230 -0.009390 0.027230 -0.000000 0.000007 -0.000007 13.229078 -0.132657 -12.511127 9.464795 0.069191 -0.012713 9.346661 0.010871 -0.018966 -0.000017 -0.000084 0.000012 14.907126 -0.391589 -15.467642 10.306461 0.136687 0.043392 10.312179 -0.000236 0.003401 -0.000123 -0.000011 -0.000003 0.000000 0.000000 0.000000 0.000000 0.000000 0.000000 -94.627541 0.684256 4.640467 -57.329094 45.540142 1.079315 -1.856257 -8.066922 49.782509 -4.127144 -19.985048 -17.311407 -8.770393 1.654626 40.575279 0.000007 0.000056 -21.555227 -0.000050 -0.000033 -14.769172 0.000109 -0.000003 -0.000857 -12.927797 0.230277 -13.531395 -8.469380 -0.038187 0.095665 -8.497714 0.001338 0.073704 -0.000001 0.000910 -0.000016 -13.607131 0.105116 -14.815975 -9.082088 -0.030038 0.023375 -8.918875 -0.000168 0.022540 -0.002000 -0.000071 -0.000225 -15.244546 -0.063613 -13.873938 -10.265892 0.067039 -0.048163 -10.257225 0.003389 -0.045157 0.000626 0.000012 0.000006 -16.067142 -0.325895 -13.633828 -10.959983 0.101268 -0.147407 -10.868617 -0.011042 -0.131696 -0.001008 0.000008 -0.000056 0.000000 0.000000 0.000000 0.000000 0.000000 0.000000 -3.268786 -3.283860 18.460531 -0.209418 -0.968417 9.862920 -0.745851 -10.259889 14.947091 -0.553775 -0.714732 -27.874439 0.000000 0.000000 0.000000 0.000000 0.000000 0.000000 0.000000 0.000000 0.000000 8.975619 6.941004 17.241259 0.230890 1.079440 13.564453 -1.422374 5.990532 11.702753 0.424114 0.288195 -27.453985 0.000000 0.000000 0.000000 0.000000 0.000000 0.000000 0.000000 0.000000 0.000000 
0.453370 85.570930 6.441503 -1.063546 -4.638101 -14.405940 -0.513549 0.257555 9.139046 5.832094 -1.536164 -3.086829 -3.934477 0.769435 18.198082 0.884074 -0.762116 -1.429521 7.229093 1.717038 12.021912 -3.127832 1.123979 -6.827907 -0.226692 3.514507 -25.571415 0.000000 0.000000 0.000000 98.642212 -1.041309 4.293604 57.409752 -44.377319 6.739886 1.424950 16.703180 32.474216 5.300080 17.494375 -10.749076 9.516129 -1.748157 40.263107 -0.000008 0.000050 -23.219564 0.000007 0.000072 -16.069597 0.000014 0.000002 -0.000049 10.457989 0.216459 -8.925948 7.478033 -0.060800 0.086668 7.437100 -0.029352 0.020014 -0.000009 0.000026 -0.000038 11.233390 0.067925 -11.117082 7.970304 -0.036834 0.030521 7.935120 -0.009387 0.027678 -0.000000 0.000007 -0.000006 13.234489 -0.132691 -12.504188 9.466126 0.069059 -0.012979 9.347377 0.010779 -0.019237 -0.000017 -0.000086 0.000013 14.914404 -0.391883 -15.454249 10.307902 0.136029 0.043498 10.313341 -0.000888 0.003154 -0.000126 -0.000011 -0.000003 0.000000 0.000000 0.000000 0.000000 0.000000 0.000000 -94.623367 0.683326 4.638852 -57.319176 45.534782 1.077037 -1.853312 -8.063561 49.790920 -4.108900 -19.984816 -17.326273 -8.766267 1.654301 40.576981 0.000007 0.000056 -21.547548 -0.000050 -0.000033 -14.763655 0.000112 -0.000003 -0.000855 -12.915426 0.230278 -13.540235 -8.465752 -0.038212 0.094019 -8.495261 0.001291 0.072027 -0.000001 0.000926 -0.000016 -13.595095 0.105171 -14.820705 -9.076832 -0.030074 0.022740 -8.915124 -0.000193 0.021930 -0.001998 -0.000070 -0.000224 -15.233594 -0.063717 -13.875768 -10.257897 0.067068 -0.047336 -10.248955 0.003414 -0.044564 0.000629 0.000012 0.000006 -16.061230 -0.326403 -13.633438 -10.951419 0.101251 -0.145861 -10.861288 -0.011169 -0.130047 -0.001007 0.000008 -0.000056 0.000000 0.000000 0.000000 0.000000 0.000000 0.000000 -3.264415 -3.290829 18.466757 -0.209379 -0.968879 9.852315 -0.744634 -10.263290 14.946551 -0.554831 -0.714166 -27.874973 0.000000 0.000000 0.000000 0.000000 0.000000 0.000000 0.000000 0.000000 0.000000 8.979503 6.936704 17.248480 0.231060 1.079657 13.561491 -1.417315 5.975233 11.702768 0.424374 0.289842 -27.457054 0.000000 0.000000 0.000000 0.000000 0.000000 0.000000 0.000000 0.000000 0.000000 
0.449202 85.570358 6.436080 -1.067397 -4.625291 -14.408002 -0.506541 0.257660 9.141648 5.829569 -1.534839 -3.101978 -3.929409 0.777763 18.223436 0.875489 -0.756770 -1.429011 7.228446 1.707787 12.002754 -3.129375 1.110121 -6.839446 -0.224302 3.512830 -25.565804 0.000000 0.000000 0.000000 98.632027 -1.042119 4.308344 57.401699 -44.406956 6.775692 1.423838 16.697109 32.471554 5.306509 17.499033 -10.764324 9.515823 -1.748108 40.262955 -0.000008 0.000050 -23.221046 0.000007 0.000072 -16.071690 0.000014 0.000002 -0.000049 10.454344 0.216814 -8.927945 7.476248 -0.060830 0.087791 7.434829 -0.029381 0.021363 -0.000009 0.000026 -0.000038 11.230456 0.068080 -11.116003 7.968529 -0.036816 0.030973 7.933171 -0.009385 0.028110 -0.000000 0.000008 -0.000006 13.239194 -0.132718 -12.497309 9.467187 0.068929 -0.013247 9.347921 0.010690 -0.019508 -0.000017 -0.000088 0.000013 14.919876 -0.392152 -15.440731 10.308680 0.135427 0.043512 10.313923 -0.001491 0.002854 -0.000128 -0.000011 -0.000003 0.000000 0.000000 0.000000 0.000000 0.000000 0.000000 -94.619629 0.681940 4.636626 -57.310169 45.528767 1.073046 -1.850246 -8.058723 49.802063 -4.091900 -19.982574 -17.339577 -8.762581 1.654044 40.578461 0.000007 0.000056 -21.540844 -0.000050 -0.000033 -14.758807 0.000114 -0.000003 -0.000850 -12.905466 0.230265 -13.548120 -8.462811 -0.038228 0.092474 -8.493476 0.001251 0.070456 -0.000001 0.000940 -0.000016 -13.585170 0.105225 -14.824853 -9.072413 -0.030106 0.022147 -8.912192 -0.000214 0.021363 -0.001996 -0.000070 -0.000224 -15.223953 -0.063822 -13.877287 -10.250736 0.067094 -0.046564 -10.241588 0.003435 -0.044014 0.000632 0.000012 0.000006 -16.055756 -0.326868 -13.632653 -10.943457 0.101229 -0.144427 -10.854535 -0.011307 -0.128514 -0.001006 0.000008 -0.000056 0.000000 0.000000 0.000000 0.000000 0.000000 0.000000 -3.260805 -3.298728 18.473806 -0.209340 -0.969355 9.841579 -0.743140 -10.267022 14.945334 -0.555911 -0.713707 -27.875273 0.000000 0.000000 0.000000 0.000000 0.000000 0.000000 0.000000 0.000000 0.000000 8.982707 6.931979 17.256237 0.231213 1.079859 13.557428 -1.412075 5.960458 11.702747 0.424641 0.291552 -27.459503 0.000000 0.000000 0.000000 0.000000 0.000000 0.000000 0.000000 0.000000 0.000000 
0.445130 85.569679 6.430830 -1.070937 -4.612418 -14.410223 -0.499605 0.257705 9.144239 5.827686 -1.533576 -3.116892 -3.925152 0.786618 18.247673 0.866753 -0.751197 -1.429568 7.226789 1.699450 11.983732 -3.131149 1.096748 -6.850711 -0.222113 3.511231 -25.560558 0.000000 0.000000 0.000000 98.622093 -1.043039 4.322984 57.394829 -44.436760 6.809532 1.422898 16.690056 32.469585 5.313126 17.504848 -10.778754 9.515558 -1.748074 40.262779 -0.000008 0.000050 -23.222612 0.000007 0.000072 -16.073837 0.000014 0.000002 -0.000049 10.451555 0.217159 -8.929440 7.474811 -0.060870 0.088886 7.432860 -0.029419 0.022674 -0.000009 0.000026 -0.000038 11.228069 0.068230 -11.114636 7.966953 -0.036803 0.031415 7.931408 -0.009386 0.028531 -0.000001 0.000008 -0.000006 13.243140 -0.132739 -12.490561 9.468049 0.068805 -0.013524 9.348344 0.010606 -0.019784 -0.000017 -0.000091 0.000013 14.923563 -0.392400 -15.427135 10.308887 0.134888 0.043413 10.314028 -0.002035 0.002476 -0.000131 -0.000011 -0.000003 0.000000 0.000000 0.000000 0.000000 0.000000 0.000000 -94.616364 0.680113 4.633833 -57.301868 45.522289 1.067457 -1.847098 -8.052521 49.815773 -4.075878 -19.977816 -17.351646 -8.759337 1.653842 40.579746 0.000007 0.000056 -21.535128 -0.000050 -0.000034 -14.754643 0.000116 -0.000003 -0.000843 -12.897993 0.230244 -13.555053 -8.460752 -0.038231 0.091051 -8.492537 0.001222 0.069012 -0.000001 0.000953 -0.000016 -13.577403 0.105281 -14.828499 -9.069020 -0.030133 0.021602 -8.910270 -0.000228 0.020842 -0.001994 -0.000070 -0.000223 -15.215644 -0.063929 -13.878541 -10.244584 0.067116 -0.045850 -10.235306 0.003452 -0.043511 0.000636 0.000012 0.000006 -16.050705 -0.327309 -13.631531 -10.936285 0.101203 -0.143103 -10.848540 -0.011452 -0.127097 -0.001005 0.000008 -0.000056 0.000000 0.000000 0.000000 0.000000 0.000000 0.000000 -3.257944 -3.307488 18.481598 -0.209303 -0.969856 9.830743 -0.741382 -10.270949 14.943480 -0.557031 -0.713368 -27.875347 0.000000 0.000000 0.000000 0.000000 0.000000 0.000000 0.000000 0.000000 0.000000 8.985174 6.927049 17.264462 0.231347 1.080031 13.552470 -1.406570 5.946332 11.702678 0.424887 0.293334 -27.461357 0.000000 0.000000 0.000000 0.000000 0.000000 0.000000 0.000000 0.000000 0.000000 
0.441167 85.568916 6.425767 -1.074101 -4.599481 -14.412616 -0.492826 0.257678 9.146788 5.826346 -1.532367 -3.131644 -3.921574 0.795860 18.270960 0.857893 -0.745446 -1.431172 7.224455 1.691891 11.964725 -3.133078 1.083863 -6.861747 -0.220094 3.509723 -25.555616 0.000000 0.000000 0.000000 98.612534 -1.044093 4.337462 57.388859 -44.466377 6.841403 1.422121 16.682245 32.468487 5.319868 17.511192 -10.792406 9.515332 -1.748052 40.262608 -0.000008 0.000050 -23.224236 0.000006 0.000072 -16.076015 0.000014 0.000002 -0.000049 10.449481 0.217502 -8.930438 7.473736 -0.060921 0.089956 7.431228 -0.029467 0.023953 -0.000008 0.000026 -0.000038 11.226089 0.068378 -11.113041 7.965640 -0.036797 0.031852 7.929878 -0.009390 0.028943 -0.000001 0.000009 -0.000006 13.246234 -0.132761 -12.484012 9.468810 0.068689 -0.013812 9.348736 0.010528 -0.020069 -0.000017 -0.000093 0.000013 14.925455 -0.392653 -15.413622 10.308689 0.134416 0.043193 10.313788 -0.002526 0.002025 -0.000134 -0.000011 -0.000003 0.000000 0.000000 0.000000 0.000000 0.000000 0.000000 -94.613670 0.677880 4.630542 -57.294102 45.515587 1.060442 -1.843869 -8.045214 49.831726 -4.060707 -19.970100 -17.362772 -8.756522 1.653685 40.580833 0.000007 0.000056 -21.530359 -0.000049 -0.000034 -14.751135 0.000118 -0.000003 -0.000833 -12.892949 0.230222 -13.560937 -8.459668 -0.038219 0.089766 -8.492538 0.001208 0.067709 -0.000001 0.000966 -0.000016 -13.571718 0.105342 -14.831586 -9.066734 -0.030154 0.021111 -8.909457 -0.000236 0.020374 -0.001992 -0.000070 -0.000223 -15.208552 -0.064042 -13.879530 -10.239535 0.067134 -0.045202 -10.230206 0.003464 -0.043058 0.000639 0.000012 0.000006 -16.045990 -0.327729 -13.630102 -10.930006 0.101169 -0.141907 -10.843410 -0.011609 -0.125805 -0.001004 0.000008 -0.000056 0.000000 0.000000 0.000000 0.000000 0.000000 0.000000 -3.255823 -3.316968 18.490101 -0.209272 -0.970389 9.819757 -0.739355 -10.275025 14.940997 -0.558217 -0.713141 -27.875181 0.000000 0.000000 0.000000 0.000000 0.000000 0.000000 0.000000 0.000000 0.000000 8.986834 6.922029 17.273197 0.231460 1.080168 13.546629 -1.400786 5.932876 11.702526 0.425100 0.295179 -27.462582 0.000000 0.000000 0.000000 0.000000 0.000000 0.000000 0.000000 0.000000 0.000000 
